<svg enable-background="new 0 0 37 44" height="44" viewBox="0 0 37 44" width="37" xmlns="http://www.w3.org/2000/svg"><path d="m0 0h37v44h-37z" fill="none"/><path d="m2.9771 25.9998v-7.5058h-2.7247v-.9492h6.5039v.9492h-2.7246v7.5059h-1.0546zm4.8667-8.2382c0-.3867.3164-.7031.7031-.7031s.7031.3163.7031.7031-.3164.7031-.7031.7031-.7031-.3164-.7031-.7031zm.1992 1.9218h1.0078v6.3164h-1.0078zm8.0009 4.6817c-.293 1.0781-1.2773 1.7461-2.6602 1.7461-1.752 0-2.8477-1.2656-2.8477-3.2637 0-1.9863 1.1133-3.2754 2.8477-3.2754 1.7051 0 2.7422 1.2129 2.7422 3.1758v.3867h-4.541v.0469c.0527 1.248.75 2.0391 1.8223 2.0391.8145 0 1.3652-.2988 1.6289-.8555zm-4.4589-2.0449h3.4805c-.0234-1.1191-.6914-1.8574-1.6934-1.8574-1.0078-.0001-1.711.7382-1.7871 1.8574zm6.0029-2.6368h.9609v.9961h.0938c.3164-.6973.9316-1.1074 1.8984-1.1074 1.418 0 2.209.8379 2.209 2.3379v4.0898h-1.0078v-3.8438c0-1.1367-.4805-1.6758-1.4883-1.6758s-1.6582.6738-1.6582 1.7812v3.7383h-1.0078zm6.5654 3.1582c0-1.9805 1.0488-3.2695 2.6543-3.2695.8789 0 1.623.416 1.9805 1.1074h.0879v-3.5039h1.0078v8.8242h-.9609v-1.0078h-.0938c-.3984.7031-1.1484 1.1191-2.0215 1.1191-1.6172.0001-2.6543-1.2831-2.6543-3.2695zm1.043 0c0 1.4766.6914 2.3613 1.8457 2.3613 1.1484 0 1.8574-.9023 1.8574-2.3613 0-1.4473-.7148-2.3613-1.8574-2.3613-1.1484 0-1.8457.8906-1.8457 2.3613zm6.1494 1.3887c0-1.1309.832-1.7812 2.3027-1.8691l1.8223-.1113v-.5742c0-.7793-.4863-1.207-1.4297-1.207-.7559 0-1.2832.2871-1.4238.7852h-1.0195c.1348-1.0137 1.1309-1.6816 2.4785-1.6816 1.541 0 2.4023.791 2.4023 2.1035v4.3242h-.9609v-.9316h-.0938c-.4102.6738-1.1016 1.043-1.9453 1.043-1.2246-.0002-2.1328-.7268-2.1328-1.8811zm4.125-.5859v-.5801l-1.6992.1113c-.9609.0645-1.3828.3984-1.3828 1.0312 0 .6445.5449 1.0195 1.2773 1.0195 1.0371.0001 1.8047-.6796 1.8047-1.5819z" fill="#fff"/></svg>