<svg id="Outlined" xmlns="http://www.w3.org/2000/svg" width="76" height="44" viewBox="0 0 76 44"><g id="es_globalnav_links_onlyonapple_image_large" data-name="es@globalnav_links_onlyonapple_image_large"><rect id="box_" width="76" height="44" fill="none"/><path id="art_" d="M1.44,23.791c.1289.8848.9727,1.4473,2.1739,1.4473,1.1367,0,1.9746-.6153,1.9746-1.4531,0-.7207-.5274-1.1778-1.6934-1.4707l-1.084-.2813C1.282,21.6465.62,20.9551.62,19.7539c0-1.4355,1.2012-2.4082,2.9883-2.4082A2.689,2.689,0,0,1,6.55,19.6836H5.4891A1.7331,1.7331,0,0,0,3.573,18.3008c-1.125,0-1.8691.5625-1.8691,1.418,0,.6621.4629,1.0429,1.6289,1.3417l.8848.2344c1.7519.44,2.4551,1.1192,2.4551,2.3613,0,1.5528-1.2247,2.543-3.1582,2.543-1.793,0-3.0293-.9492-3.1407-2.4082Zm6.419-.9492c0-2.0332,1.1133-3.27,2.9121-3.27s2.9121,1.2363,2.9121,3.27c0,2.0273-1.1133,3.27-2.9121,3.27S7.8592,24.8691,7.8592,22.8418Zm4.7812,0c0-1.5-.6738-2.3613-1.8691-2.3613s-1.8692.8613-1.8692,2.3613c0,1.4941.6739,2.3613,1.8692,2.3613S12.64,24.3359,12.64,22.8418Zm2.5635-5.666h1.0078V26H15.2039Zm2.5288,5.666c0-2.0332,1.1133-3.27,2.9121-3.27s2.9121,1.2363,2.9121,3.27c0,2.0273-1.1132,3.27-2.9121,3.27S17.7327,24.8691,17.7327,22.8418Zm4.7813,0c0-1.5-.6739-2.3613-1.8692-2.3613s-1.8691.8613-1.8691,2.3613c0,1.4941.6738,2.3613,1.8691,2.3613S22.514,24.3359,22.514,22.8418Zm10.9629,1.5234a2.5223,2.5223,0,0,1-2.66,1.7461c-1.752,0-2.8477-1.2656-2.8477-3.2636,0-1.9864,1.1133-3.2754,2.8477-3.2754,1.7051,0,2.7422,1.2129,2.7422,3.1757v.3868h-4.541v.0468c.0527,1.2481.75,2.0391,1.8222,2.0391a1.6361,1.6361,0,0,0,1.6289-.8555ZM29.0179,22.32h3.48a1.7,1.7,0,0,0-1.6933-1.8574A1.7992,1.7992,0,0,0,29.0179,22.32Zm6.0029-2.6367h.9609V20.68h.0938a1.8983,1.8983,0,0,1,1.8984-1.1074,2.059,2.059,0,0,1,2.209,2.3379V26H39.1751V22.1562c0-1.1367-.48-1.6757-1.4883-1.6757a1.6015,1.6015,0,0,0-1.6582,1.7812V26H35.0208ZM49.9451,23.58H46.5818l-.85,2.42H44.6248l3.1172-8.4551h1.043L51.9021,26H50.7947Zm-3.0527-.8965h2.7422L48.31,18.91h-.0938Zm11.9736.1582c0,1.9746-1.0488,3.27-2.6543,3.27a2.12,2.12,0,0,1-1.9746-1.0605h-.0937v3.0586H53.1355V19.6836h.961v1.0547H54.19a2.277,2.277,0,0,1,2.0215-1.166C57.823,19.5723,58.866,20.8555,58.866,22.8418Zm-1.043,0c0-1.4766-.6914-2.3613-1.8457-2.3613-1.1425,0-1.8632.9082-1.8632,2.3613,0,1.4473.7207,2.3613,1.8574,2.3613C57.1316,25.2031,57.823,24.3184,57.823,22.8418Zm8.2354,0c0,1.9746-1.0488,3.27-2.6543,3.27A2.12,2.12,0,0,1,61.43,25.0508h-.0938v3.0586H60.3279V19.6836h.961v1.0547h.0937a2.277,2.277,0,0,1,2.0215-1.166C65.0154,19.5723,66.0584,20.8555,66.0584,22.8418Zm-1.043,0c0-1.4766-.6914-2.3613-1.8457-2.3613-1.1426,0-1.8633.9082-1.8633,2.3613,0,1.4473.7207,2.3613,1.8575,2.3613C64.324,25.2031,65.0154,24.3184,65.0154,22.8418Zm2.564-5.666h1.0078V26H67.5794Zm8.0361,7.1894a2.5221,2.5221,0,0,1-2.66,1.7461c-1.752,0-2.8477-1.2656-2.8477-3.2636,0-1.9864,1.1133-3.2754,2.8477-3.2754,1.705,0,2.7422,1.2129,2.7422,3.1757v.3868H71.1565v.0468c.0528,1.2481.75,2.0391,1.8223,2.0391a1.6362,1.6362,0,0,0,1.6289-.8555ZM71.1565,22.32H74.637a1.7,1.7,0,0,0-1.6933-1.8574A1.7992,1.7992,0,0,0,71.1565,22.32Z" fill="#fff"/></g></svg>