<svg enable-background="new 0 0 55 44" height="44" viewBox="0 0 55 44" width="55" xmlns="http://www.w3.org/2000/svg"><path d="m0 0h55v44h-55z" fill="none"/><path d="m2.9754 25.9948v-7.5058h-2.7246v-.9492h6.5039v.9492h-2.7246v7.5059h-1.0547zm7.7314 0-3.1172-8.4551h1.1074l2.4844 7.0898h.0938l2.4844-7.0898h1.1074l-3.1172 8.4551zm8.7486 2.25v-.8613c.123.0234.2812.0293.4219.0293.5801 0 .8965-.2754 1.1602-1.0371l.1172-.375-2.3379-6.3223h1.0898l1.7344 5.1973h.0938l1.7285-5.1973h1.0723l-2.4668 6.7031c-.5391 1.4648-1.043 1.8984-2.1621 1.8984-.1349.0001-.3107-.0116-.4513-.0351zm9.375-6.4746c0-2.7305 1.4297-4.4297 3.7266-4.4297 1.7812 0 3.1699 1.1191 3.4219 2.748h-1.0723c-.2812-1.0898-1.1836-1.7754-2.3496-1.7754-1.623 0-2.6426 1.3359-2.6426 3.457s1.0195 3.4512 2.6484 3.4512c1.1777 0 2.0742-.6035 2.3438-1.582h1.0723c-.2812 1.5527-1.6172 2.5547-3.416 2.5547-2.297.0001-3.7325-1.6992-3.7325-4.4238zm8.2939 2.4551c0-1.1309.832-1.7812 2.3027-1.8691l1.8223-.1113v-.5742c0-.7793-.4863-1.207-1.4297-1.207-.7559 0-1.2832.2871-1.4238.7852h-1.0195c.1348-1.0137 1.1309-1.6816 2.4785-1.6816 1.541 0 2.4023.791 2.4023 2.1035v4.3242h-.9609v-.9316h-.0938c-.4102.6738-1.1016 1.043-1.9453 1.043-1.2246-.0002-2.1328-.7268-2.1328-1.8811zm4.125-.5859v-.5801l-1.6992.1113c-.9609.0645-1.3828.3984-1.3828 1.0312 0 .6445.5449 1.0195 1.2773 1.0195 1.0371.0001 1.8047-.6796 1.8047-1.5819zm4.9605-4.0723c1.3242 0 2.2441.6562 2.3789 1.6934h-.9961c-.1348-.5039-.627-.8379-1.3887-.8379-.75 0-1.3359.3809-1.3359.9434 0 .4336.3516.7031 1.0957.8848l.9727.2344c1.1894.287 1.7636.8026 1.7636 1.7108 0 1.1309-1.0957 1.9102-2.5312 1.9102-1.4062 0-2.373-.6738-2.4844-1.7227h1.0371c.1699.5332.6738.873 1.4824.873.8496 0 1.459-.4043 1.459-.9844 0-.4336-.3281-.7266-1.002-.8906l-1.084-.2637c-1.1836-.2871-1.7227-.7969-1.7227-1.7109.0001-1.0488 1.0138-1.8398 2.3556-1.8398zm3.5771 4.6582c0-1.1309.832-1.7812 2.3027-1.8691l1.8223-.1113v-.5742c0-.7793-.4863-1.207-1.4297-1.207-.7559 0-1.2832.2871-1.4238.7852h-1.0195c.1348-1.0137 1.1309-1.6816 2.4785-1.6816 1.541 0 2.4023.791 2.4023 2.1035v4.3242h-.9609v-.9316h-.0938c-.4102.6738-1.1016 1.043-1.9453 1.043-1.2246-.0002-2.1328-.7268-2.1328-1.8811zm4.125-.5859v-.5801l-1.6992.1113c-.9609.0645-1.3828.3984-1.3828 1.0312 0 .6445.5449 1.0195 1.2773 1.0195 1.0371.0001 1.8047-.6796 1.8047-1.5819z" fill="#fff"/></svg>